<?xml version="1.0" encoding="UTF-8" standalone="no"?>
<svg width="1440" height="800" viewBox="0 0 1440 800" fill="none" xmlns="http://www.w3.org/2000/svg">
  <defs>
    <linearGradient id="grad1" x1="0%" y1="0%" x2="100%" y2="100%">
      <stop offset="0%" stop-color="#202122" stop-opacity="1"/>
      <stop offset="80%" stop-color="#282829" stop-opacity="1"/>
    </linearGradient>
    <linearGradient id="particle-grad" x1="0%" y1="0%" x2="100%" y2="100%">
      <stop offset="0%" stop-color="#0EA5E9" stop-opacity="0.3"/>
      <stop offset="100%" stop-color="#8A53D2" stop-opacity="0.3"/>
    </linearGradient>
    <filter id="glow" height="300%" width="300%" x="-100%" y="-100%">
      <feGaussianBlur stdDeviation="5" result="blur"/>
      <feMerge>
        <feMergeNode in="blur"/>
        <feMergeNode in="SourceGraphic"/>
      </feMerge>
    </filter>
  </defs>
  
  <!-- Background -->
  <rect width="1440" height="800" fill="url(#grad1)"/>
  
  <!-- Particle Network -->
  <g opacity="0.4">
    <!-- Nodes -->
    <circle cx="200" cy="150" r="3" fill="#FFFFFF" filter="url(#glow)"/>
    <circle cx="350" cy="320" r="2" fill="#FFFFFF" filter="url(#glow)"/>
    <circle cx="500" cy="120" r="2.5" fill="#FFFFFF" filter="url(#glow)"/>
    <circle cx="650" cy="250" r="2" fill="#FFFFFF" filter="url(#glow)"/>
    <circle cx="800" cy="150" r="3" fill="#FFFFFF" filter="url(#glow)"/>
    <circle cx="950" cy="320" r="2" fill="#FFFFFF" filter="url(#glow)"/>
    <circle cx="1100" cy="220" r="2.5" fill="#FFFFFF" filter="url(#glow)"/>
    <circle cx="1250" cy="150" r="2" fill="#FFFFFF" filter="url(#glow)"/>
    
    <circle cx="150" cy="400" r="2" fill="#FFFFFF" filter="url(#glow)"/>
    <circle cx="300" cy="500" r="3" fill="#FFFFFF" filter="url(#glow)"/>
    <circle cx="450" cy="450" r="2" fill="#FFFFFF" filter="url(#glow)"/>
    <circle cx="600" cy="550" r="2.5" fill="#FFFFFF" filter="url(#glow)"/>
    <circle cx="750" cy="450" r="2" fill="#FFFFFF" filter="url(#glow)"/>
    <circle cx="900" cy="500" r="3" fill="#FFFFFF" filter="url(#glow)"/>
    <circle cx="1050" cy="450" r="2" fill="#FFFFFF" filter="url(#glow)"/>
    <circle cx="1200" cy="550" r="2.5" fill="#FFFFFF" filter="url(#glow)"/>
    <circle cx="1350" cy="450" r="2" fill="#FFFFFF" filter="url(#glow)"/>
    
    <circle cx="200" cy="650" r="3" fill="#FFFFFF" filter="url(#glow)"/>
    <circle cx="350" cy="600" r="2" fill="#FFFFFF" filter="url(#glow)"/>
    <circle cx="500" cy="700" r="2.5" fill="#FFFFFF" filter="url(#glow)"/>
    <circle cx="650" cy="600" r="2" fill="#FFFFFF" filter="url(#glow)"/>
    <circle cx="800" cy="650" r="3" fill="#FFFFFF" filter="url(#glow)"/>
    <circle cx="950" cy="600" r="2" fill="#FFFFFF" filter="url(#glow)"/>
    <circle cx="1100" cy="700" r="2.5" fill="#FFFFFF" filter="url(#glow)"/>
    <circle cx="1250" cy="600" r="2" fill="#FFFFFF" filter="url(#glow)"/>
    
    <!-- Connections -->
    <line x1="200" y1="150" x2="350" y2="320" stroke="url(#particle-grad)" stroke-width="0.5"/>
    <line x1="350" y1="320" x2="500" y2="120" stroke="url(#particle-grad)" stroke-width="0.5"/>
    <line x1="500" y1="120" x2="650" y2="250" stroke="url(#particle-grad)" stroke-width="0.5"/>
    <line x1="650" y1="250" x2="800" y2="150" stroke="url(#particle-grad)" stroke-width="0.5"/>
    <line x1="800" y1="150" x2="950" y2="320" stroke="url(#particle-grad)" stroke-width="0.5"/>
    <line x1="950" y1="320" x2="1100" y2="220" stroke="url(#particle-grad)" stroke-width="0.5"/>
    <line x1="1100" y1="220" x2="1250" y2="150" stroke="url(#particle-grad)" stroke-width="0.5"/>
    
    <line x1="150" y1="400" x2="300" y2="500" stroke="url(#particle-grad)" stroke-width="0.5"/>
    <line x1="300" y1="500" x2="450" y2="450" stroke="url(#particle-grad)" stroke-width="0.5"/>
    <line x1="450" y1="450" x2="600" y2="550" stroke="url(#particle-grad)" stroke-width="0.5"/>
    <line x1="600" y1="550" x2="750" y2="450" stroke="url(#particle-grad)" stroke-width="0.5"/>
    <line x1="750" y1="450" x2="900" y2="500" stroke="url(#particle-grad)" stroke-width="0.5"/>
    <line x1="900" y1="500" x2="1050" y2="450" stroke="url(#particle-grad)" stroke-width="0.5"/>
    <line x1="1050" y1="450" x2="1200" y2="550" stroke="url(#particle-grad)" stroke-width="0.5"/>
    <line x1="1200" y1="550" x2="1350" y2="450" stroke="url(#particle-grad)" stroke-width="0.5"/>
    
    <line x1="200" y1="650" x2="350" y2="600" stroke="url(#particle-grad)" stroke-width="0.5"/>
    <line x1="350" y1="600" x2="500" y2="700" stroke="url(#particle-grad)" stroke-width="0.5"/>
    <line x1="500" y1="700" x2="650" y2="600" stroke="url(#particle-grad)" stroke-width="0.5"/>
    <line x1="650" y1="600" x2="800" y2="650" stroke="url(#particle-grad)" stroke-width="0.5"/>
    <line x1="800" y1="650" x2="950" y2="600" stroke="url(#particle-grad)" stroke-width="0.5"/>
    <line x1="950" y1="600" x2="1100" y2="700" stroke="url(#particle-grad)" stroke-width="0.5"/>
    <line x1="1100" y1="700" x2="1250" y2="600" stroke="url(#particle-grad)" stroke-width="0.5"/>
    
    <!-- Cross connections -->
    <line x1="350" y1="320" x2="450" y2="450" stroke="url(#particle-grad)" stroke-width="0.5"/>
    <line x1="800" y1="150" x2="750" y2="450" stroke="url(#particle-grad)" stroke-width="0.5"/>
    <line x1="600" y1="550" x2="650" y2="600" stroke="url(#particle-grad)" stroke-width="0.5"/>
    <line x1="1050" y1="450" x2="950" y2="600" stroke="url(#particle-grad)" stroke-width="0.5"/>
    <line x1="500" y1="120" x2="200" y2="150" stroke="url(#particle-grad)" stroke-width="0.5"/>

    <!-- Colored nodes representing active points -->
    <circle cx="800" cy="150" r="4" fill="#0EA5E9" filter="url(#glow)"/>
    <circle cx="750" cy="450" r="4" fill="#8A53D2" filter="url(#glow)"/>
    <circle cx="350" cy="600" r="4" fill="#10B981" filter="url(#glow)"/>
  </g>
  
  <!-- Subtle grid pattern -->
  <g opacity="0.05">
    <path d="M0,100 L1440,100" stroke="#FFFFFF" stroke-width="0.5"/>
    <path d="M0,200 L1440,200" stroke="#FFFFFF" stroke-width="0.5"/>
    <path d="M0,300 L1440,300" stroke="#FFFFFF" stroke-width="0.5"/>
    <path d="M0,400 L1440,400" stroke="#FFFFFF" stroke-width="0.5"/>
    <path d="M0,500 L1440,500" stroke="#FFFFFF" stroke-width="0.5"/>
    <path d="M0,600 L1440,600" stroke="#FFFFFF" stroke-width="0.5"/>
    <path d="M0,700 L1440,700" stroke="#FFFFFF" stroke-width="0.5"/>
    
    <path d="M100,0 L100,800" stroke="#FFFFFF" stroke-width="0.5"/>
    <path d="M200,0 L200,800" stroke="#FFFFFF" stroke-width="0.5"/>
    <path d="M300,0 L300,800" stroke="#FFFFFF" stroke-width="0.5"/>
    <path d="M400,0 L400,800" stroke="#FFFFFF" stroke-width="0.5"/>
    <path d="M500,0 L500,800" stroke="#FFFFFF" stroke-width="0.5"/>
    <path d="M600,0 L600,800" stroke="#FFFFFF" stroke-width="0.5"/>
    <path d="M700,0 L700,800" stroke="#FFFFFF" stroke-width="0.5"/>
    <path d="M800,0 L800,800" stroke="#FFFFFF" stroke-width="0.5"/>
    <path d="M900,0 L900,800" stroke="#FFFFFF" stroke-width="0.5"/>
    <path d="M1000,0 L1000,800" stroke="#FFFFFF" stroke-width="0.5"/>
    <path d="M1100,0 L1100,800" stroke="#FFFFFF" stroke-width="0.5"/>
    <path d="M1200,0 L1200,800" stroke="#FFFFFF" stroke-width="0.5"/>
    <path d="M1300,0 L1300,800" stroke="#FFFFFF" stroke-width="0.5"/>
    <path d="M1400,0 L1400,800" stroke="#FFFFFF" stroke-width="0.5"/>
  </g>
  
  <!-- Abstract wave element at bottom -->
  <path d="M0,700 Q360,780 720,700 T1440,720" stroke="#0EA5E9" stroke-width="0.7" fill="none" opacity="0.2"/>
  <path d="M0,720 Q360,650 720,720 T1440,680" stroke="#8A53D2" stroke-width="0.7" fill="none" opacity="0.2"/>
</svg>