<?xml version="1.0" encoding="UTF-8" standalone="no"?>
<svg width="1200" height="600" xmlns="http://www.w3.org/2000/svg">
  <defs>
    <linearGradient id="gradient" x1="0%" y1="0%" x2="100%" y2="100%">
      <stop offset="0%" stop-color="#46B2E0" stop-opacity="0.1"/>
      <stop offset="50%" stop-color="#8A53D2" stop-opacity="0.1"/>
      <stop offset="100%" stop-color="#E056A0" stop-opacity="0.1"/>
    </linearGradient>
  </defs>
  <rect width="1200" height="600" fill="#0e0e10"/>
  <rect width="1200" height="600" fill="url(#gradient)"/>
  
  <!-- Pattern overlay -->
  <path d="M0,0 L1200,600" stroke="#FFFFFF" stroke-width="0.5" stroke-opacity="0.03" />
  <path d="M1200,0 L0,600" stroke="#FFFFFF" stroke-width="0.5" stroke-opacity="0.03" />
  
  <!-- Grid pattern -->
  <g stroke="#FFFFFF" stroke-width="0.3" stroke-opacity="0.05">
    <path d="M100,0 L100,600" />
    <path d="M200,0 L200,600" />
    <path d="M300,0 L300,600" />
    <path d="M400,0 L400,600" />
    <path d="M500,0 L500,600" />
    <path d="M600,0 L600,600" />
    <path d="M700,0 L700,600" />
    <path d="M800,0 L800,600" />
    <path d="M900,0 L900,600" />
    <path d="M1000,0 L1000,600" />
    <path d="M1100,0 L1100,600" />
    
    <path d="M0,100 L1200,100" />
    <path d="M0,200 L1200,200" />
    <path d="M0,300 L1200,300" />
    <path d="M0,400 L1200,400" />
    <path d="M0,500 L1200,500" />
  </g>
</svg>